<?xml version="1.0" encoding="utf-8"?>
<!-- Generator: Adobe Illustrator 26.5.0, SVG Export Plug-In . SVG Version: 6.00 Build 0)  -->
<svg version="1.1" id="Layer_1" xmlns="http://www.w3.org/2000/svg" xmlns:xlink="http://www.w3.org/1999/xlink" x="0px" y="0px"
	 viewBox="0 0 270.4 269.3" style="enable-background:new 0 0 270.4 269.3;" xml:space="preserve">
<style type="text/css">
	.st0{fill:#FFFFFF;}
</style>
<path class="st0" d="M270.4,189.2V0h-5C194.7,0,128.1,27.5,78.1,77.4C28,127.3,0.3,193.7,0,264.3l0,5h189.2v0h81.2L270.4,189.2
	L270.4,189.2z M217.2,206.4L90.3,79.5C113,58.1,139,41.3,167,29.6l65.8,166.9C227.3,199.1,222,202.4,217.2,206.4z M83.2,86.5
	l126.7,126.7c-4.3,4.6-8,9.6-11,14.9L34.2,156.6C46.3,130.9,62.8,107.2,83.2,86.5z M218.9,218.3c11.3-11.1,25.8-17.7,41.4-18.9v59.9
	h-60.9C200.9,243.8,207.7,229.3,218.9,218.3z M260.4,10v179.3c-6.3,0.4-12.4,1.6-18.2,3.4L176.3,25.9c2-0.8,4.1-1.5,6.2-2.2
	C207.3,15.2,233.5,10.6,260.4,10z M11.8,234.8c2.8-24,9-47.2,18.3-69.1l164.5,71.5c-2.8,7-4.5,14.5-5.1,22.2H10.1
	C10.3,251.1,10.9,242.9,11.8,234.8z"/>
</svg>
