<?xml version="1.0" encoding="utf-8"?>
<!-- Generator: Adobe Illustrator 26.5.0, SVG Export Plug-In . SVG Version: 6.00 Build 0)  -->
<svg version="1.1" id="Layer_1" xmlns="http://www.w3.org/2000/svg" xmlns:xlink="http://www.w3.org/1999/xlink" x="0px" y="0px"
	 viewBox="0 0 49.6 50" style="enable-background:new 0 0 49.6 50;" xml:space="preserve">
<style type="text/css">
	.st0{fill:#FFFFFF;}
</style>
<g id="Layer_2_00000013897591620985618360000013424378117300607363_">
</g>
<path class="st0" d="M25.8,0.3h-0.7c-0.1,0-0.2,0-0.3,0h-1C11,0.8,0.6,11.2,0,24v1v1c0.6,12.8,11,23.2,23.8,23.7h0.7
	c0.1,0,0.2,0,0.3,0h1C38.6,49.2,49,38.8,49.6,26v-1v-1C49,11.2,38.6,0.8,25.8,0.3z M47.5,24H32.2c-0.1-0.4-0.1-0.8-0.3-1.2l14-6.1
	C46.8,19,47.4,21.4,47.5,24z M45.1,14.9l-14,6.1c-0.1-0.2-0.3-0.4-0.5-0.6L41.4,9.5C42.9,11.1,44.1,12.9,45.1,14.9z M40,8.1L29.2,19
	c-0.2-0.2-0.5-0.3-0.7-0.5l5.6-14.3C36.3,5.2,38.2,6.5,40,8.1z M25.8,17.6V2.3c2.2,0.1,4.4,0.5,6.4,1.2l-5.6,14.3
	c-0.3-0.1-0.5-0.1-0.8-0.1V17.6z M23.8,2.4v15.2c-0.3,0.1-0.5,0.2-0.8,0.2L17.4,3.6C19.4,2.9,21.6,2.5,23.8,2.4z M15.6,4.2l5.6,14.2
	c-0.3,0.2-0.5,0.4-0.7,0.5L9.7,8.1C11.4,6.5,13.4,5.2,15.6,4.2z M8.2,9.5L19,20.3c-0.2,0.2-0.3,0.5-0.5,0.7l-14-6.1
	C5.5,12.9,6.7,11.1,8.2,9.5z M3.6,16.7l14,6.1c-0.1,0.4-0.2,0.8-0.3,1.2h-0.1H2C2.2,21.4,2.7,19,3.6,16.7z M2,26h15.3
	c0.1,0.4,0.2,0.8,0.3,1.2l-14,6.1C2.7,31,2.2,28.6,2,26z M4.5,35.1l14-6.1c0.1,0.2,0.3,0.4,0.5,0.6L8.2,40.5
	C6.7,38.9,5.5,37.1,4.5,35.1z M9.6,41.9L20.4,31c0.2,0.2,0.5,0.3,0.7,0.5l-5.6,14.3C13.3,44.8,11.4,43.5,9.6,41.9z M23.8,47.7
	c-2.2-0.1-4.4-0.5-6.4-1.2L23,32.2c0.3,0.1,0.5,0.1,0.8,0.1V47.7z M24.8,30.7c-3.1,0-5.6-2.5-5.6-5.7s2.5-5.7,5.6-5.7
	s5.7,2.5,5.7,5.7S27.9,30.7,24.8,30.7z M25.8,47.7V32.3c0.3,0,0.5-0.1,0.8-0.1l5.6,14.3C30.2,47.2,28,47.6,25.8,47.7z M34,45.8
	l-5.6-14.2c0.3-0.2,0.5-0.4,0.7-0.5l10.8,10.8C38.2,43.5,36.2,44.8,34,45.8z M41.4,40.5L30.6,29.7c0.2-0.2,0.3-0.5,0.5-0.7l14,6.1
	C44.1,37.1,42.9,38.9,41.4,40.5z M46,33.3l-14-6.1c0.1-0.4,0.2-0.8,0.3-1.2h0.1h15.3C47.4,28.6,46.9,31,46,33.3z"/>
</svg>
