<?xml version="1.0" encoding="utf-8"?>
<!-- Generator: Adobe Illustrator 26.5.0, SVG Export Plug-In . SVG Version: 6.00 Build 0)  -->
<svg version="1.1" id="Layer_1" xmlns="http://www.w3.org/2000/svg" xmlns:xlink="http://www.w3.org/1999/xlink" x="0px" y="0px"
	 viewBox="0 0 49.6 25" style="enable-background:new 0 0 49.6 25;" xml:space="preserve">
<style type="text/css">
	.st0{fill:#FFB714;}
</style>
<path class="st0" d="M49.2,24.5c-0.1-13.3-10.8-24-23.9-24.3l0,0h-0.5l0,0h-0.5l0,0C11.1,0.5,0.5,11.2,0.4,24.5V25h17.4h6.5h1h6.5
	h17.4V24.5z M40.8,7.5L29.2,19.2c-0.4-0.3-0.9-0.6-1.4-0.9l6-15.3C36.5,4.1,38.8,5.6,40.8,7.5z M25.3,1.2c2.7,0.1,5.2,0.6,7.6,1.4
	l-6,15.3c-0.5-0.2-1-0.3-1.6-0.3C25.3,17.6,25.3,1.2,25.3,1.2z M24.3,1.2v16.4c-0.6,0-1.1,0.1-1.6,0.3l-6-15.3
	C19.1,1.8,21.6,1.3,24.3,1.2z M15.7,3l6,15.3c-0.5,0.2-0.9,0.5-1.4,0.9L8.8,7.5C10.8,5.6,13.1,4.1,15.7,3z M17.8,24H1.4
	c0.1-3,0.7-5.8,1.8-8.6L18.3,22C18,22.7,17.9,23.3,17.8,24z M3.6,14.5C4.7,12.2,6.2,10,8,8.2l11.6,11.6c-0.4,0.4-0.7,0.8-1,1.3
	L3.6,14.5z M25.3,18.6c2.9,0.2,5.2,2.5,5.5,5.4h-5.5l0,0c-0.3,0-0.5,0-1,0l0,0h-5.5c0.3-2.9,2.6-5.1,5.5-5.4
	C24.7,18.6,24.9,18.6,25.3,18.6 M29.9,19.8L41.5,8.2c1.8,1.8,3.3,4,4.4,6.3l-15.1,6.5C30.6,20.7,30.3,20.2,29.9,19.8z M31.8,24
	c-0.1-0.7-0.2-1.3-0.5-2l15.1-6.5c1.1,2.6,1.8,5.5,1.8,8.6H31.8z"/>
</svg>
