<?xml version="1.0" encoding="utf-8"?>
<!-- Generator: Adobe Illustrator 26.5.0, SVG Export Plug-In . SVG Version: 6.00 Build 0)  -->
<svg version="1.1" id="Layer_1" xmlns="http://www.w3.org/2000/svg" xmlns:xlink="http://www.w3.org/1999/xlink" x="0px" y="0px"
	 viewBox="0 0 49.6 25" style="enable-background:new 0 0 49.6 25;" xml:space="preserve">
<style type="text/css">
	.st0{fill:#FF4D84;}
</style>
<path class="st0" d="M49.1,24.5C49,11.3,38.4,0.6,25.3,0.3v0h-0.5h0h-0.5v0C11.2,0.6,0.6,11.3,0.5,24.5l0,0.5h17.3h6.5h1h6.5h17.3
	L49.1,24.5z M40.7,7.6L29.2,19.2c-0.4-0.3-0.9-0.6-1.4-0.9l6-15.2C36.4,4.2,38.7,5.7,40.7,7.6z M25.3,1.3c2.7,0.1,5.2,0.6,7.6,1.4
	l-6,15.2c-0.5-0.2-1-0.3-1.6-0.3V1.3z M24.3,1.3v16.3c-0.6,0-1.1,0.1-1.6,0.3l-6-15.2C19.1,1.9,21.6,1.4,24.3,1.3z M15.8,3.1l6,15.2
	c-0.5,0.2-0.9,0.5-1.4,0.9L8.9,7.6C10.9,5.7,13.2,4.2,15.8,3.1z M17.8,24H1.5c0.1-3,0.7-5.8,1.8-8.5l15,6.5
	C18,22.7,17.9,23.3,17.8,24z M3.7,14.6c1.1-2.3,2.6-4.5,4.4-6.3l11.5,11.5c-0.4,0.4-0.7,0.8-1,1.3L3.7,14.6z M25.3,18.6
	c2.9,0.2,5.2,2.5,5.5,5.4h-5.5l0,0c-0.3,0-0.5,0-1,0l0,0h-5.5c0.3-2.9,2.6-5.1,5.5-5.4C24.7,18.6,24.9,18.6,25.3,18.6 M29.9,19.8
	L41.4,8.3c1.8,1.8,3.3,4,4.4,6.3l-15,6.5C30.6,20.7,30.3,20.2,29.9,19.8z M31.8,24c-0.1-0.7-0.2-1.3-0.5-2l15-6.5
	c1.1,2.6,1.8,5.5,1.8,8.5H31.8z"/>
</svg>
