<svg id="Calque_1" data-name="Calque 1" xmlns="http://www.w3.org/2000/svg" viewBox="0 0 100 100"><defs><style>.cls-1{fill:#fff;}</style></defs><path class="cls-1" d="M49.91,0A50,50,0,1,0,99.84,50.07V50A50,50,0,0,0,49.91,0Zm0,88.39A38.26,38.26,0,1,1,82.56,70.21,38,38,0,0,1,49.91,88.39Z" transform="translate(0.16 0)"/><path class="cls-1" d="M54,52.83V31.35a5.8,5.8,0,1,0-11.59-.48,3.84,3.84,0,0,0,0,.48v23.9a4.73,4.73,0,0,0,.18.91,6.39,6.39,0,0,0,.27,1.3,5.61,5.61,0,0,0,1.27,1.91L57.52,72.75a5.81,5.81,0,0,0,8.21-8.22Z" transform="translate(0.16 0)"/></svg>