<?xml version="1.0" encoding="utf-8"?>
<!-- Generator: Adobe Illustrator 26.5.0, SVG Export Plug-In . SVG Version: 6.00 Build 0)  -->
<svg version="1.1" id="Layer_1" xmlns="http://www.w3.org/2000/svg" xmlns:xlink="http://www.w3.org/1999/xlink" x="0px" y="0px"
	 viewBox="0 0 174 90" style="enable-background:new 0 0 174 90;" xml:space="preserve">
<style type="text/css">
	.st0{fill:#FFFFFF;}
	.st1{fill:none;}
</style>
<g id="Layer_2_00000170266217143820534270000006979820893721401994_">
	<path class="st0" d="M148.5,0.5c0,0-147.9,11.8-147.8,13l3.1,35.8c4.1,33.6,34.4,42.5,49.3,40.3L173.5,79L168,16.8
		C167.9,16.8,166.3-1.1,148.5,0.5z"/>
</g>
<g id="Layer_3">
	<g>
		<path d="M88.9,13.6c-0.1-0.1-0.3-0.3-0.4-0.3c-0.2-0.1-0.5-0.2-0.7,0c-0.5,0-1,0.3-1.2,0.8l-0.2-2.3l-1.2,0.1l0.5,6l1.2-0.1
			l-0.2-2.2c0-0.3-0.1-0.6,0-0.8c0.1-0.2,0.2-0.3,0.3-0.4c0.2-0.1,0.3-0.1,0.5-0.1c0.1,0,0.3,0,0.4,0.1c0.1,0,0.2,0.1,0.2,0.2
			c0.1,0.3,0.2,0.6,0.2,0.9l0.2,2.3l1.2-0.1l-0.2-2.6c0-0.3-0.1-0.6-0.2-0.9C89.1,13.9,89,13.8,88.9,13.6z"/>
		<polygon points="10.9,22.5 9.4,18.6 7.7,18.7 8.2,24.7 9.3,24.6 8.9,19.8 10.5,24.5 11.7,24.4 12.4,19.5 12.9,24.3 14,24.2 
			13.4,18.2 11.6,18.4 		"/>
		<polygon points="79.8,13.4 81.6,13.2 82,18.2 83.2,18.1 82.7,13.1 84.5,12.9 84.5,11.9 79.7,12.4 		"/>
		<polygon points="93.1,11.1 91.8,11.2 91.3,12.4 92,12.4 		"/>
		<path d="M101.2,15.6c-0.1,0-0.1,0-0.2-0.1l-0.1-0.1c0-0.2,0-0.4-0.1-0.6l-0.2-1.8l0.8-0.1l-0.1-0.9l-0.8,0.1l-0.1-1.5l-1.1,0.8
			l0.1,0.9l-0.5,0l0.1,0.9l0.5,0l0.2,1.9c0,0.3,0,0.5,0.1,0.8c0,0.2,0.1,0.3,0.2,0.4s0.2,0.2,0.4,0.3s0.4,0.1,0.6,0
			c0.3,0,0.6-0.2,0.9-0.3l-0.2-0.9C101.5,15.6,101.4,15.6,101.2,15.6z"/>
		<path d="M98.6,15.2l-0.1-1.3c0-0.4-0.1-0.7-0.3-1c-0.1-0.2-0.3-0.4-0.5-0.5c-0.4-0.1-0.8-0.1-1.1-0.1c-0.4,0-0.9,0.2-1.3,0.4
			c-0.3,0.2-0.4,0.6-0.5,0.9l1,0.1c0-0.2,0.1-0.3,0.3-0.4c0.1-0.1,0.3-0.1,0.5-0.1c0.2,0,0.4,0,0.6,0c0.1,0.1,0.2,0.3,0.2,0.5l0,0.1
			c-0.4,0.1-0.7,0.3-1.1,0.4c-0.3,0.1-0.6,0.2-0.9,0.4c-0.2,0.1-0.4,0.3-0.5,0.4c-0.1,0.2-0.2,0.4-0.1,0.7s0.2,0.7,0.5,0.9
			C95.6,17,96,17,96.4,17c0.2,0,0.5,0,0.7-0.2c0.2-0.1,0.4-0.2,0.6-0.5l0,0.1c0,0.2,0.1,0.3,0.1,0.3l1.1-0.1
			c-0.1-0.2-0.2-0.4-0.3-0.6C98.6,15.8,98.6,15.5,98.6,15.2z M97.5,14.9c0,0.2,0,0.4,0.1,0.6l0,0c0,0.2-0.1,0.3-0.3,0.4
			s-0.4,0.2-0.6,0.3c-0.2,0-0.3-0.1-0.5-0.2c-0.1-0.1-0.2-0.3-0.2-0.4c0-0.2,0.1-0.3,0.2-0.4c0.2-0.1,0.4-0.2,0.6-0.3
			c0.2,0,0.5-0.1,0.7-0.3L97.5,14.9L97.5,14.9z"/>
		<rect x="75.3" y="15.9" transform="matrix(0.9961 -8.770831e-02 8.770831e-02 0.9961 -1.1494 6.7704)" width="2.3" height="1.2"/>
		<path d="M94.2,15.2c0-0.7-0.2-1.4-0.7-1.9c-0.4-0.4-1.1-0.6-1.5-0.5c-0.5,0-1.1,0.3-1.3,0.7c-0.4,0.5-0.5,1.1-0.4,1.7
			c0,0.5,0.2,1.1,0.5,1.5c0.4,0.5,1.1,0.7,1.8,0.5c0.4,0,0.8-0.2,1.2-0.4c0.3-0.2,0.5-0.7,0.6-1.1l-1.1-0.1c0,0.2-0.1,0.3-0.3,0.5
			c-0.1,0.1-0.3,0.2-0.5,0.1c-0.3,0-0.5-0.1-0.7-0.2c-0.2-0.2-0.3-0.5-0.4-0.8L94.2,15.2L94.2,15.2z M91.3,14.8
			c0-0.3,0.1-0.5,0.1-0.7l0,0l0,0l0,0c0.2-0.2,0.4-0.3,0.6-0.4c0.2,0,0.4,0.1,0.6,0.2c0.2,0.2,0.3,0.4,0.4,0.7L91.3,14.8z"/>
		<polygon points="96.5,11.4 97,11.9 97.9,11.9 97,10.7 95.9,10.8 95.1,12.1 96.1,12 		"/>
		<path d="M62.6,15.9c-0.1-0.2-0.3-0.3-0.5-0.4c-0.2-0.1-0.5-0.1-0.7,0c-0.6,0.1-1.1,0.4-1.3,0.8L60,15.7l-1.1,0.1l0.4,4.4l1.1-0.1
			l-0.2-2c0-0.3-0.1-0.7,0-1c0.1-0.2,0.2-0.3,0.3-0.4c0.2-0.1,0.3-0.2,0.5-0.2c0.1,0,0.3,0,0.4,0.1c0.1,0.1,0.2,0.2,0.2,0.3
			c0.1,0.3,0.2,0.6,0.2,0.9l0.2,2.2l1.2-0.1l-0.2-2.7c0-0.3,0-0.5-0.2-0.8C62.7,16.2,62.7,16,62.6,15.9z"/>
		<path d="M159.7,9c-0.4-0.3-0.8-0.3-1.3-0.4c-0.4-0.1-0.7-0.1-1.1-0.2c-0.1,0-0.1-0.1-0.1-0.2l0,0c0-0.1,0-0.2,0.1-0.2
			c0.2-0.1,0.4-0.1,0.7-0.2c0.2,0,0.4,0,0.6,0c0.1,0.1,0.2,0.2,0.3,0.4l1.1-0.3c-0.1-0.4-0.4-0.7-0.7-0.8C158.8,7,158.3,7,157.9,7
			c-0.5,0-1,0.2-1.4,0.5c-0.3,0.2-0.4,0.6-0.3,1c0,0.4,0.3,0.8,0.6,1c0.6,0.2,1.2,0.4,1.8,0.4c0.1,0,0.3,0.1,0.4,0.2
			c0.1,0.1,0.1,0.1,0.1,0.2c0,0.1-0.1,0.2-0.2,0.3c-0.2,0.1-0.4,0.2-0.7,0.3c-0.2,0-0.4,0-0.6-0.1c-0.2-0.1-0.3-0.3-0.3-0.5
			l-1.2,0.3c0.1,0.4,0.4,0.7,0.8,0.9c0.4,0.3,0.9,0.3,1.4,0.3c0.5,0,1.1-0.2,1.5-0.5c0.3-0.2,0.4-0.6,0.4-1
			C160.1,9.6,160,9.3,159.7,9z"/>
		<path d="M58.1,18.8l-0.1-1.3c0-0.4-0.1-0.7-0.3-1c-0.1-0.2-0.3-0.4-0.5-0.5C56.7,16,56.3,15.9,56,16c-0.4,0-0.9,0.2-1.3,0.4
			c-0.3,0.2-0.4,0.6-0.5,0.9l1,0.1c0-0.2,0.1-0.3,0.3-0.4c0.1-0.1,0.3-0.1,0.5-0.1s0.4,0,0.6,0c0.1,0.1,0.2,0.3,0.2,0.5l0,0.1
			c-0.4,0.1-0.7,0.3-1.1,0.4c-0.3,0.1-0.6,0.2-0.9,0.4c-0.2,0.1-0.4,0.3-0.5,0.4c-0.2,0.2-0.2,0.4-0.1,0.7c0,0.3,0.2,0.7,0.5,0.9
			c0.3,0.3,0.7,0.3,1.1,0.3c0.2,0,0.5,0,0.7-0.2s0.4-0.2,0.6-0.5l0,0.1c0,0.2,0.1,0.3,0.1,0.3l1.1-0.1l0,0c-0.1-0.2-0.2-0.4-0.3-0.6
			C58.1,19.4,58.1,19.1,58.1,18.8z M56.9,18.5c0,0.2,0,0.4,0.1,0.6l0,0c0,0.2-0.1,0.3-0.3,0.4c-0.2,0.1-0.4,0.2-0.6,0.3
			c-0.2,0-0.3-0.1-0.5-0.2c-0.1-0.1-0.2-0.3-0.2-0.4c0-0.2,0.1-0.3,0.2-0.4c0.2-0.1,0.4-0.2,0.6-0.3c0.2,0,0.5-0.1,0.7-0.3
			L56.9,18.5L56.9,18.5z"/>
		<path d="M52.5,15.4c-0.2-0.3-0.6-0.4-0.9-0.5c-0.4-0.1-0.8,0-1.1,0L48.3,15l0.5,6l2.3-0.2c0.4,0,0.7-0.1,1.1-0.2
			c0.3-0.1,0.6-0.4,0.9-0.6c0.3-0.3,0.4-0.7,0.5-1.1c0.1-0.4,0.1-0.8,0.1-1.3l0,0c0-0.5-0.2-1-0.3-1.4C53,15.9,52.8,15.6,52.5,15.4z
			 M52.2,18.9L52.2,18.9c-0.1,0.2-0.2,0.4-0.2,0.6c-0.1,0.1-0.3,0.2-0.5,0.2s-0.5,0.1-0.7,0.2L49.9,20l-0.4-4l0.5,0
			c0.3,0,0.7-0.1,1,0c0.2,0,0.4,0.1,0.6,0.2c0.1,0.1,0.2,0.3,0.3,0.5c0.1,0.3,0.2,0.7,0.2,1.1S52.3,18.5,52.2,18.9z"/>
		<path d="M66,16.8c-0.4-0.1-0.7-0.1-1.1-0.2c-0.1,0-0.1-0.1-0.1-0.2l0,0c0-0.1,0-0.2,0.1-0.2c0.2-0.1,0.4-0.1,0.7-0.2
			c0.2,0,0.4,0,0.6,0c0.1,0.1,0.2,0.2,0.3,0.4l1-0.3c-0.1-0.4-0.4-0.7-0.7-0.8c-0.4-0.2-0.9-0.2-1.3-0.2c-0.5,0-1,0.2-1.4,0.5
			c-0.3,0.2-0.4,0.6-0.3,1c0,0.4,0.3,0.8,0.6,1c0.6,0.2,1.2,0.4,1.8,0.4c0.1,0,0.3,0.1,0.4,0.2c0.1,0.1,0.1,0.1,0.1,0.2
			c0,0.1-0.1,0.2-0.2,0.3c-0.2,0.1-0.4,0.2-0.7,0.3c-0.2,0-0.4,0-0.6-0.1c-0.2-0.1-0.3-0.3-0.3-0.5l-1.2,0.1
			c0.1,0.4,0.4,0.7,0.8,0.9c0.4,0.3,0.9,0.3,1.4,0.3c0.5,0,1.1-0.2,1.5-0.5c0.3-0.2,0.4-0.6,0.4-1c0-0.3-0.2-0.6-0.5-0.9
			C66.9,17,66.5,16.8,66,16.8z"/>
		<path d="M17.6,21.2c0,0.4,0.1,0.8,0,1.2c-0.1,0.2-0.2,0.3-0.3,0.4c-0.2,0.1-0.3,0.2-0.5,0.2c-0.2,0-0.3,0-0.4-0.1
			c-0.1-0.1-0.2-0.2-0.2-0.3c-0.1-0.4-0.2-0.7-0.2-1.1l-0.2-2l-1.2,0.1l0.2,2.8c0,0.3,0.1,0.7,0.3,1c0.1,0.2,0.3,0.4,0.5,0.5
			c0.2,0.1,0.5,0.2,0.8,0.1s0.6-0.2,0.8-0.3c0.3-0.1,0.5-0.3,0.6-0.6L18,24l1.1-0.1l-0.4-4.4l-1.2,0.1L17.6,21.2z"/>
		<path d="M21.9,20.7c-0.4-0.1-0.7-0.1-1.1-0.2c-0.1,0-0.1-0.1-0.1-0.2l0,0c0-0.1,0-0.2,0.1-0.2c0.2-0.1,0.4-0.1,0.7-0.2
			c0.2,0,0.4,0,0.6,0c0.1,0.1,0.2,0.2,0.2,0.4l1.1-0.3c-0.1-0.4-0.4-0.7-0.7-0.8C22.2,19,21.7,19,21.3,19c-0.5,0-1,0.2-1.4,0.5
			c-0.3,0.2-0.4,0.6-0.3,1c0,0.4,0.3,0.8,0.6,1c0.6,0.2,1.2,0.4,1.8,0.4c0.1,0,0.3,0.1,0.4,0.2s0.1,0.1,0.1,0.2
			c0,0.1-0.1,0.2-0.2,0.3c-0.2,0.1-0.4,0.2-0.7,0.3c-0.2,0-0.4,0-0.6-0.1c-0.2-0.1-0.3-0.3-0.3-0.5l-1.2,0.1
			c0.1,0.4,0.4,0.7,0.8,0.9c0.4,0.3,0.9,0.3,1.4,0.3c0.5,0,1.1-0.2,1.5-0.5c0.3-0.2,0.4-0.6,0.4-1c0-0.3-0.2-0.6-0.5-0.9
			C22.8,20.9,22.4,20.7,21.9,20.7z"/>
		<path d="M70.1,14.7c-0.5,0-1.1,0.3-1.3,0.7c-0.4,0.5-0.5,1.1-0.4,1.7c0,0.5,0.2,1.1,0.5,1.5c0.4,0.5,1.1,0.7,1.8,0.5
			c0.4,0,0.8-0.2,1.2-0.4c0.3-0.2,0.5-0.7,0.6-1.1l-1.2,0c0,0.2-0.1,0.3-0.3,0.5c-0.1,0.1-0.3,0.2-0.5,0.1c-0.3,0-0.5-0.1-0.7-0.2
			s-0.3-0.5-0.4-0.8l2.9-0.3c0-0.7-0.2-1.4-0.7-1.9C71.3,14.8,70.6,14.7,70.1,14.7z M69.5,16.7c0-0.3,0.1-0.5,0.1-0.7l0,0l0,0l0,0
			c0.2-0.2,0.4-0.3,0.6-0.4c0.2,0,0.4,0.1,0.6,0.2c0.2,0.2,0.3,0.5,0.4,0.8L69.5,16.7L69.5,16.7z"/>
		<path d="M40.5,19.9c0-0.7-0.2-1.4-0.7-1.9c-0.4-0.4-1.1-0.6-1.5-0.5c-0.5,0-1.1,0.3-1.3,0.7c-0.4,0.5-0.5,1.1-0.4,1.7
			c0,0.5,0.2,1.1,0.5,1.5c0.4,0.5,1.1,0.7,1.8,0.5c0.4,0,0.8-0.2,1.2-0.4c0.3-0.2,0.5-0.7,0.6-1.1l-1.2,0c0,0.2-0.1,0.4-0.3,0.5
			c-0.1,0.1-0.3,0.2-0.5,0.1c-0.3,0-0.5-0.1-0.7-0.2c-0.2-0.2-0.3-0.5-0.4-0.8L40.5,19.9L40.5,19.9z M37.6,19.5
			c0-0.3,0.1-0.5,0.1-0.7l0,0c0.2-0.2,0.4-0.3,0.6-0.4c0.2,0,0.4,0.1,0.6,0.2c0.2,0.2,0.3,0.5,0.4,0.8L37.6,19.5L37.6,19.5z"/>
		<polygon points="141,8.6 139.7,8.7 139,10 138.1,8.8 136.7,9 138.4,10.9 137,13.3 138.4,13.2 139,11.8 140.1,13.1 141.6,12.9 
			139.7,10.8 		"/>
		<path d="M126.9,12.3c0-0.7-0.2-1.4-0.7-1.9c-0.4-0.4-1.1-0.6-1.5-0.5c-0.5,0-1.1,0.3-1.3,0.7c-0.4,0.5-0.5,1.1-0.4,1.7
			c0,0.5,0.2,1.1,0.5,1.5c0.4,0.5,1.1,0.7,1.8,0.5c0.4,0,0.8-0.2,1.2-0.4c0.3-0.2,0.5-0.7,0.6-1.1l-1.1-0.1c0,0.2-0.1,0.3-0.3,0.5
			c-0.1,0.1-0.3,0.2-0.5,0.1c-0.3,0-0.5-0.1-0.7-0.2s-0.3-0.5-0.4-0.8L126.9,12.3L126.9,12.3z M124,11.9c0-0.3,0.1-0.5,0.1-0.7l0,0
			c0.2-0.2,0.4-0.3,0.6-0.4c0.2,0,0.4,0.1,0.6,0.2c0.2,0.2,0.3,0.5,0.4,0.8L124,11.9L124,11.9z"/>
		<path d="M103.6,12c-0.2,0.2-0.4,0.4-0.4,0.6l-0.1-0.7L102,12l0.4,4.4l1.1-0.1l-0.1-1.3c0-0.5-0.1-1,0-1.5c0-0.2,0.1-0.4,0.3-0.5
			c0.1-0.1,0.3-0.1,0.4-0.1c0.2,0,0.4,0.1,0.5,0.2l0.3-1l0,0c-0.2-0.1-0.5-0.2-0.8-0.1C103.9,11.7,103.7,11.9,103.6,12z"/>
		<path d="M131.3,12.3l-0.1-1.3c0-0.4-0.1-0.7-0.3-1c-0.1-0.2-0.3-0.4-0.5-0.5c-0.4-0.1-0.8-0.1-1.1-0.1c-0.4,0-0.9,0.2-1.3,0.4
			c-0.3,0.2-0.4,0.6-0.5,0.9l1,0.1c0-0.2,0.1-0.3,0.3-0.4c0.1-0.1,0.3-0.1,0.5-0.1c0.2,0,0.4,0,0.6,0c0.1,0.1,0.2,0.3,0.2,0.5l0,0.1
			c-0.4,0.1-0.7,0.3-1.1,0.4c-0.3,0.1-0.6,0.2-0.9,0.4c-0.2,0.1-0.4,0.3-0.5,0.4c-0.1,0.2-0.2,0.4-0.1,0.7c0,0.3,0.2,0.7,0.5,0.9
			c0.3,0.3,0.7,0.3,1.1,0.3c0.2,0,0.5,0,0.7-0.2c0.2-0.1,0.4-0.2,0.6-0.5l0,0.1c0,0.2,0.1,0.3,0.1,0.3l1.1-0.1
			c-0.1-0.2-0.2-0.4-0.3-0.6C131.4,12.9,131.3,12.6,131.3,12.3z M130.1,12c0,0.2,0,0.4,0.1,0.6l0,0c0,0.2-0.1,0.3-0.3,0.4
			c-0.2,0.1-0.4,0.2-0.6,0.3c-0.2,0-0.3-0.1-0.5-0.2c-0.1-0.1-0.2-0.3-0.2-0.4c0-0.2,0.1-0.3,0.2-0.4c0.2-0.1,0.4-0.2,0.6-0.3
			s0.5-0.1,0.7-0.3L130.1,12L130.1,12z"/>
		<polygon points="144,9.9 141.7,10.1 141.8,11.3 144.1,11.1 		"/>
		<rect x="24.2" y="17.2" transform="matrix(0.9961 -8.770831e-02 8.770831e-02 0.9961 -1.461 2.2464)" width="1.2" height="1.1"/>
		<path d="M155.4,10.8c-0.1,0-0.1,0-0.2-0.1l-0.1-0.1c0-0.2,0-0.4-0.1-0.6l-0.2-1.8l0.8-0.1l-0.1-0.9l-0.8,0.1l-0.1-1.5l-1.1,0.7
			l0.1,0.9l-0.5,0l0,0.1c0,0,0,0,0.1,0l-0.1,0.2l0-0.2c-0.2-0.1-0.5-0.2-0.7-0.1c-0.2,0-0.4,0-0.5,0.1c-0.2,0.2-0.4,0.4-0.4,0.6
			l-0.1-0.6l-1.1,0.1l0.4,4.4l1.2-0.1l-0.1-1.3c0-0.5-0.1-1,0-1.5c0-0.2,0.1-0.4,0.3-0.5c0.1-0.1,0.3-0.1,0.4-0.1
			c0.2,0,0.4,0.1,0.5,0.2l0.2-0.8l0.1,0.6l0.5,0l0.2,1.9c0,0.3,0,0.5,0.1,0.8c0,0.2,0.1,0.3,0.2,0.4c0.1,0.1,0.2,0.2,0.4,0.3
			c0.2,0.1,0.4,0.1,0.6,0c0.3,0,0.6-0.2,0.9-0.3l-0.2-0.9C155.7,10.8,155.5,10.8,155.4,10.8z"/>
		<path d="M146,6.4l-1.8,6.2l1.3-0.1l0.4-1.4l2.4-0.2l0.6,1.4l1.3-0.1l-2.9-5.8L146,6.4z M146.1,10.1l0.6-2.3l1,2.1L146.1,10.1z"/>
		<path d="M135.1,10.9c0,0.4,0.1,0.8,0,1.2c-0.1,0.2-0.2,0.3-0.3,0.4c-0.2,0.1-0.3,0.2-0.5,0.2c-0.2,0-0.3,0-0.4-0.1
			c-0.1-0.1-0.2-0.2-0.2-0.3c-0.1-0.4-0.2-0.7-0.2-1.1l-0.2-2l-1.2,0.1l0.2,2.8c0,0.3,0.1,0.7,0.3,1c0.1,0.2,0.3,0.4,0.5,0.5
			c0.2,0.1,0.5,0.2,0.8,0.1c0.3,0,0.6-0.2,0.8-0.3c0.3-0.1,0.5-0.3,0.6-0.6l0.1,0.7l1.1-0.1l-0.4-4.4l-1.2,0.1L135.1,10.9
			L135.1,10.9z"/>
		<rect x="24.5" y="18.8" transform="matrix(0.9961 -8.770831e-02 8.770831e-02 0.9961 -1.7438 2.2839)" width="1.2" height="4.4"/>
		
			<rect x="112.2" y="12.6" transform="matrix(0.9961 -8.770831e-02 8.770831e-02 0.9961 -0.7227 9.9906)" width="2.3" height="1.2"/>
		<rect x="43.4" y="18.7" transform="matrix(0.9961 -8.770831e-02 8.770831e-02 0.9961 -1.5184 3.9853)" width="2.3" height="1.2"/>
		<path d="M109.2,13.9c0-0.7-0.2-1.4-0.7-1.9c-0.4-0.4-1.1-0.6-1.5-0.5c-0.5,0-1.1,0.3-1.3,0.7c-0.4,0.5-0.5,1.1-0.4,1.7
			c0,0.5,0.2,1.1,0.5,1.5c0.4,0.5,1.1,0.7,1.8,0.5c0.4,0,0.8-0.2,1.2-0.4c0.3-0.2,0.5-0.7,0.6-1.1l-1.1-0.1c0,0.2-0.1,0.4-0.3,0.5
			c-0.1,0.1-0.3,0.2-0.5,0.1c-0.3,0-0.5-0.1-0.7-0.2c-0.2-0.2-0.3-0.5-0.4-0.8L109.2,13.9L109.2,13.9z M106.3,13.4
			c0-0.3,0.1-0.5,0.1-0.7l0,0c0.2-0.2,0.4-0.3,0.6-0.4c0.2,0,0.4,0.1,0.6,0.2c0.2,0.2,0.3,0.5,0.4,0.8L106.3,13.4L106.3,13.4z"/>
		<path d="M29.6,19.1c-0.2-0.3-0.4-0.5-0.7-0.5c-0.2-0.1-0.5-0.2-0.8-0.1c-0.5,0-1,0.3-1.2,0.7c-0.4,0.5-0.5,1-0.4,1.6
			c0.1,0.6,0.3,1.3,0.8,1.7c0.3,0.4,0.8,0.5,1.2,0.5c0.3,0,0.5-0.1,0.7-0.3c0.2-0.1,0.4-0.3,0.6-0.6l0.2,2.2l1.2-0.1l-0.5-6
			l-1.1,0.1C29.5,18.4,29.6,19.1,29.6,19.1z M29.4,21.6L29.4,21.6c-0.2,0.2-0.4,0.4-0.7,0.5c-0.3,0-0.5-0.1-0.7-0.2
			c-0.2-0.3-0.4-0.7-0.4-1c0-0.4,0-0.7,0.2-1.1c0.2-0.2,0.4-0.3,0.7-0.4c0.3,0,0.5,0.1,0.7,0.2c0.2,0.3,0.4,0.6,0.4,1
			C29.6,20.9,29.6,21.3,29.4,21.6z"/>
		<path d="M34.5,19.8c0,0.4,0.1,0.8,0,1.2c-0.1,0.2-0.2,0.3-0.3,0.4c-0.2,0.1-0.3,0.2-0.5,0.2s-0.3,0-0.4-0.1
			c-0.1-0.1-0.2-0.2-0.2-0.3C33,20.9,33,20.6,33,20.2l-0.2-2l-1.2,0.1l0.2,2.8c0,0.3,0.1,0.7,0.3,1c0.1,0.2,0.3,0.4,0.5,0.5
			s0.5,0.2,0.8,0.1s0.6-0.2,0.8-0.3c0.3-0.1,0.5-0.3,0.6-0.6l0.1,0.7l1.1-0.1l-0.4-4.4l-1.2,0.1C34.4,18.2,34.5,19.8,34.5,19.8z"/>
		<path d="M121.1,11.5c0.3-0.1,0.5-0.3,0.6-0.6c0.2-0.2,0.2-0.5,0.1-0.8c0-0.2-0.1-0.5-0.3-0.7s-0.3-0.4-0.5-0.5
			c-0.2-0.1-0.4-0.2-0.6-0.1c-0.4,0-0.7,0-1.1,0l-2.4,0.2l0.5,6l2-0.2c0.8-0.1,1.3-0.1,1.5-0.1c0.3,0,0.6-0.2,0.8-0.4
			c0.2-0.2,0.4-0.4,0.4-0.6c0.1-0.2,0.2-0.5,0.1-0.8l0,0c0-0.3-0.2-0.6-0.4-0.9C121.7,11.7,121.4,11.6,121.1,11.5z M118.2,10
			l0.7-0.1c0.6-0.1,0.9-0.1,1-0.1c0.2,0,0.3,0.1,0.5,0.2c0.1,0.1,0.2,0.3,0.2,0.5s-0.1,0.3-0.2,0.5l0,0c-0.1,0.1-0.3,0.2-0.5,0.2
			c-0.1,0-0.4,0-0.9,0.1l-0.8,0.1C118.3,11.4,118.2,10,118.2,10z M120.9,13.5c-0.1,0.1-0.3,0.2-0.4,0.2c-0.3,0-0.6,0.1-0.8,0.1
			l-1.1,0.1l-0.1-1.6l1-0.1c0.4,0,0.7-0.1,1.1,0c0.2,0,0.3,0.1,0.4,0.3c0.1,0.1,0.1,0.3,0.1,0.5C121.1,13.1,121,13.2,120.9,13.5
			L120.9,13.5z"/>
	</g>
</g>
<g id="Layer_1_00000060032582149677799040000004472769563216197044_">
	<g>
		<g id="Groupe_534">
			<g>
				<path d="M87.8,76.7c-0.5,0-1.1,0.3-1.3,0.7c-0.4,0.5-0.5,1.1-0.4,1.7c0.1,0.6,0.3,1.2,0.6,1.5c0.4,0.4,0.9,0.5,1.5,0.5
					c0.4,0,0.9-0.2,1.2-0.5c0.3-0.3,0.5-0.7,0.6-1.1l-0.7,0c-0.1,0.3-0.2,0.5-0.3,0.7l0,0c-0.2,0.1-0.5,0.2-0.7,0.3
					c-0.3,0-0.7,0-0.9-0.3c-0.3-0.3-0.5-0.7-0.5-1.1l3.2-0.3c0-0.1,0-0.2,0-0.2c-0.1-0.6-0.3-1.2-0.6-1.5
					C89,76.8,88.4,76.6,87.8,76.7z M86.8,78.6c0-0.3,0-0.7,0.3-0.9l0,0c0.2-0.2,0.5-0.3,0.8-0.4c0.3,0,0.7,0,0.9,0.3
					c0.2,0.2,0.3,0.5,0.4,0.8L86.8,78.6z"/>
				<path d="M84,77c-0.5,0-1,0.4-1.2,0.8c-0.1-0.2-0.2-0.4-0.5-0.6c-0.2-0.1-0.5-0.2-0.8-0.1c-0.3,0-0.5,0.1-0.8,0.3
					c-0.2,0.1-0.4,0.3-0.5,0.5l-0.1-0.6l-0.7,0.1l0.4,4.3l0.7-0.1l-0.2-2.2c0-0.3-0.1-0.6,0-0.9c0.1-0.2,0.2-0.4,0.4-0.5
					c0.2-0.1,0.4-0.2,0.6-0.3c0.2,0,0.4,0.1,0.6,0.1c0.1,0.2,0.2,0.5,0.3,0.7l0.2,2.8l0.7-0.1L82.9,79c0-0.3,0-0.7,0.2-1
					c0.2-0.2,0.5-0.3,0.7-0.4c0.2,0,0.3,0,0.4,0.1c0.1,0.1,0.2,0.2,0.3,0.3c0.1,0.2,0.1,0.4,0.2,0.6l0.2,2.7l0.7-0.1l-0.3-2.9
					c0-0.4-0.2-0.8-0.4-1.1C84.7,77.1,84.4,77,84,77z"/>
				<path d="M75.7,81.7c0.4,0.4,0.9,0.5,1.5,0.5c0.4,0,0.7-0.2,1-0.4c0.3-0.2,0.6-0.5,0.6-0.8c0.2-0.4,0.2-0.9,0.1-1.3
					c-0.1-0.6-0.3-1.2-0.7-1.5c-0.4-0.4-0.9-0.5-1.4-0.5c-0.5,0-1,0.3-1.3,0.6c-0.5,0.5-0.6,1.2-0.5,1.9
					C75,80.6,75.3,81.2,75.7,81.7 M78.1,81.1c-0.3,0.2-0.6,0.5-0.9,0.5c-0.3,0-0.7,0-0.9-0.3c-0.3-0.4-0.5-0.8-0.5-1.2
					c0-0.4,0-0.9,0.3-1.2l0,0c0.2-0.3,0.6-0.5,0.9-0.5c0.3,0,0.7,0,0.9,0.3c0.3,0.3,0.5,0.8,0.5,1.2C78.4,80.2,78.3,80.7,78.1,81.1z
					"/>
				<path d="M92,76.3c-0.2,0-0.3,0-0.5,0.1c-0.2,0.2-0.4,0.4-0.4,0.6L91,76.5l-0.7,0.1l0.4,4.3l0.7-0.1l-0.2-2.2
					c0-0.3-0.1-0.6,0-0.8c0-0.2,0.1-0.3,0.3-0.4c0.1-0.1,0.3-0.1,0.4-0.1c0.2,0,0.4,0.1,0.5,0.2l0.1-0.7
					C92.6,76.4,92.3,76.3,92,76.3z"/>
				<path d="M96.9,79.8c0-0.4-0.2-0.9-0.1-1.3l-0.1-1c0-0.2,0-0.4-0.1-0.7c0-0.2-0.1-0.3-0.2-0.5c-0.1-0.1-0.3-0.3-0.5-0.3
					c-0.3-0.1-0.6,0-0.9,0c-0.3,0-0.7,0.1-1,0.3c-0.2,0.1-0.5,0.2-0.6,0.5c-0.2,0.2-0.3,0.5-0.2,0.7l0.7,0c0-0.2,0.2-0.5,0.3-0.6
					c0.2-0.1,0.5-0.2,0.8-0.3c0.3,0,0.6,0,0.8,0.1C96,77,96,77.2,96,77.4c0,0,0,0.1,0,0.2c-0.4,0.1-0.9,0.3-1.3,0.3
					c-0.2,0-0.4,0.1-0.6,0.2c-0.2,0.1-0.4,0.1-0.5,0.2c-0.2,0.1-0.3,0.2-0.4,0.4c-0.1,0.2-0.1,0.4,0,0.6c0,0.3,0.2,0.7,0.5,0.9
					c0.3,0.2,0.7,0.3,1.1,0.2c0.3,0,0.5,0,0.8-0.2c0.3-0.1,0.5-0.3,0.8-0.6c0,0.2,0.1,0.4,0.1,0.5l0.7-0.1C97,80.1,97,80,96.9,79.8z
					 M95.9,79.2c-0.1,0.2-0.3,0.4-0.5,0.5C95.3,80,95.1,80,94.8,80c-0.2,0-0.5-0.1-0.6-0.1s-0.2-0.3-0.2-0.5c0-0.1,0-0.2,0.1-0.3
					c0.1-0.1,0.2-0.2,0.3-0.2c0.2-0.1,0.4-0.1,0.6-0.2c0.4,0,0.8-0.2,1.2-0.4l0,0.3C96.1,78.8,96,79,95.9,79.2z"/>
				<polygon points="96.4,80.4 96.4,80.4 96.3,80.4 				"/>
				<polygon points="88.8,75.1 87.8,75.2 87.4,76.3 88,76.3 				"/>
				<path d="M61,77.6l-1.8,6.1l0.8-0.1l0.4-1.8l2.5-0.2l0.9,1.7l0.9-0.1l-2.9-5.7L61,77.6z M60.8,81.1l0.4-1.7
					c0.1-0.4,0.1-0.7,0.2-1.1c0.1,0.3,0.3,0.7,0.5,1.2l0.7,1.5L60.8,81.1z"/>
				
					<rect x="99.4" y="74.1" transform="matrix(0.9961 -8.770831e-02 8.770831e-02 0.9961 -6.1539 9.0364)" width="0.7" height="0.8"/>
				<path d="M99,79.5L99,79.5c-0.1,0-0.2,0-0.3-0.1c-0.1,0-0.1-0.1-0.1-0.1c0-0.1,0-0.3,0-0.4l-0.2-2.5l0.7-0.1L99,75.8l-0.7,0.1
					l-0.1-1.5l-0.7,0.5l0.1,1.1l-0.5,0l0.1,0.6l0.5,0l0.2,2.5c0,0.3,0.1,0.6,0.2,0.9c0.1,0.1,0.2,0.3,0.3,0.3c0.2,0.1,0.4,0.1,0.6,0
					c0.2,0,0.4,0,0.5-0.1l-0.2-0.6C99.2,79.5,99.1,79.5,99,79.5z"/>
				<path d="M168.1,69.7l-0.7,2.6c-0.1,0.3-0.1,0.6-0.2,1c-0.1-0.3-0.3-0.7-0.4-1l-1.1-2.4L165,70l2,4.1c0,0.1-0.1,0.1-0.1,0.2
					c-0.1,0.2-0.1,0.4-0.2,0.5c-0.1,0.1-0.1,0.2-0.2,0.2c-0.1,0.1-0.3,0.1-0.4,0.1c-0.1,0-0.3,0-0.4-0.1l0.2,0.7
					c0.1,0.1,0.3,0.1,0.5,0.1l0,0c0.2,0,0.4-0.1,0.6-0.3c0.2-0.1,0.3-0.3,0.4-0.5c0.2-0.3,0.2-0.6,0.3-1l1.2-4.4
					C168.8,69.7,168.1,69.7,168.1,69.7z"/>
				<path d="M164.8,73.8c0-0.4-0.2-0.9-0.1-1.3l-0.1-1c0-0.2,0-0.4-0.1-0.7c0-0.2-0.1-0.3-0.2-0.5c-0.1-0.1-0.3-0.3-0.5-0.3
					c-0.3-0.1-0.6,0-0.9,0s-0.7,0.1-1,0.3c-0.2,0.1-0.5,0.2-0.6,0.5c-0.2,0.2-0.3,0.5-0.2,0.7l0.7,0c0-0.2,0.2-0.5,0.3-0.6
					c0.2-0.1,0.5-0.2,0.8-0.3s0.6,0,0.8,0.1c0.2,0.2,0.2,0.4,0.3,0.6c0,0,0,0.1,0,0.2c-0.4,0.1-0.9,0.3-1.3,0.3
					c-0.2,0-0.4,0.1-0.6,0.2c-0.2,0.1-0.4,0.1-0.5,0.2c-0.2,0.1-0.3,0.3-0.4,0.4c-0.1,0.2-0.1,0.4,0,0.6c0,0.3,0.2,0.7,0.5,0.9
					c0.1,0.1,0.3,0.2,0.4,0.2l1.3-0.1l0.1,0c0.3-0.1,0.5-0.3,0.8-0.6c0,0.2,0.1,0.4,0.1,0.5l0.7-0.1C164.9,74.1,164.9,74,164.8,73.8
					z M163.9,73.2c-0.1,0.2-0.3,0.4-0.5,0.5c-0.2,0.1-0.5,0.2-0.8,0.3c-0.2,0-0.5-0.1-0.6-0.1c-0.1-0.1-0.2-0.3-0.2-0.5
					c0-0.1,0-0.2,0.1-0.3c0.1-0.1,0.2-0.2,0.3-0.2c0.2-0.1,0.4-0.1,0.6-0.2c0.4,0,0.8-0.2,1.2-0.4l0,0.3C164,72.8,164,73,163.9,73.2
					z"/>
				<path d="M67.6,79.1c-0.3-0.4-0.8-0.5-1.2-0.5c-0.4,0-0.7,0.2-1,0.4c-0.3,0.2-0.5,0.5-0.5,0.8c-0.2,0.4-0.1,0.7-0.1,1.1
					c0,0.5,0.3,1.1,0.6,1.5c0.3,0.4,0.9,0.6,1.4,0.5c0.5,0,0.9-0.3,1.1-0.7c0,0.3,0.1,0.6,0,0.9c-0.1,0.2-0.2,0.4-0.3,0.6
					c-0.2,0.1-0.5,0.2-0.8,0.3c-0.3,0-0.5-0.1-0.7-0.1c-0.1-0.1-0.2-0.3-0.2-0.5l-0.7,0c0,0.4,0.2,0.8,0.6,1
					c0.4,0.2,0.8,0.3,1.2,0.2c0.4,0,0.7-0.2,1.1-0.3c0.3-0.1,0.5-0.4,0.5-0.7c0.2-0.5,0.1-0.9,0.1-1.4l-0.3-3.7l-0.8,0.1L67.6,79.1z
					 M67.5,81.9c-0.2,0.2-0.5,0.4-0.8,0.5s-0.6,0-0.8-0.3c-0.3-0.4-0.5-0.8-0.4-1.2c0-0.4,0-0.8,0.2-1.2l0,0
					c0.2-0.2,0.5-0.4,0.8-0.5c0.3,0,0.6,0,0.8,0.3c0.3,0.3,0.5,0.8,0.4,1.2C67.9,81.1,67.7,81.6,67.5,81.9z"/>
				
					<rect x="73.6" y="76.4" transform="matrix(0.9961 -8.770831e-02 8.770831e-02 0.9961 -6.6768 6.7943)" width="0.7" height="5.9"/>
				<path d="M72,78.7c-0.3-0.4-0.8-0.5-1.2-0.5c-0.4,0-0.7,0.2-1,0.4c-0.3,0.2-0.5,0.5-0.5,0.8c-0.1,0.4-0.1,0.7-0.1,1.1
					c0,0.5,0.3,1.1,0.6,1.5c0.3,0.4,0.9,0.6,1.4,0.5c0.5,0,0.9-0.3,1.1-0.7c0,0.3,0.1,0.6,0,0.9c-0.1,0.2-0.2,0.4-0.3,0.6
					c-0.2,0.1-0.5,0.2-0.8,0.3s-0.5-0.1-0.7-0.1c-0.1-0.1-0.2-0.3-0.2-0.5l-0.7,0c0,0.4,0.2,0.8,0.6,1c0.4,0.2,0.8,0.3,1.2,0.2
					c0.4,0,0.7-0.2,1.1-0.3c0.3-0.1,0.5-0.4,0.5-0.7c0.2-0.5,0.1-0.9,0.1-1.4l-0.3-3.7L72,78L72,78.7L72,78.7z M71.9,81.5
					c-0.2,0.2-0.5,0.4-0.8,0.5c-0.3,0-0.6,0-0.8-0.3c-0.3-0.4-0.5-0.8-0.4-1.2c0-0.4,0-0.8,0.2-1.2l0,0c0.2-0.3,0.5-0.4,0.8-0.5
					s0.6,0,0.8,0.3c0.3,0.3,0.5,0.8,0.4,1.2C72.1,80.7,72.1,81.2,71.9,81.5z"/>
				<path d="M69.9,84.1L69.9,84.1L69.9,84.1z"/>
				<path d="M163.2,74.5L163.2,74.5l1.1-0.1l0,0l0,0L163.2,74.5z"/>
				<path d="M146.5,72c-0.1-0.2-0.3-0.3-0.5-0.4c-0.2-0.1-0.5-0.1-0.7,0c-0.5,0-1.1,0.3-1.3,0.8l-0.1-0.6l-0.6,0.1l0.4,4.3l0.7-0.1
					l-0.2-2.3c0-0.4,0-0.8,0.2-1.1c0.2-0.2,0.5-0.3,0.8-0.4c0.2,0,0.4,0,0.5,0.1c0.1,0.1,0.2,0.2,0.3,0.3c0.1,0.2,0.1,0.4,0.2,0.7
					l0.2,2.6l0.7-0.1l-0.2-2.6c0-0.2,0-0.5-0.1-0.7C146.7,72.4,146.7,72.2,146.5,72z"/>
				<path d="M140.6,72c-0.5,0-1.1,0.3-1.3,0.7c-0.4,0.5-0.5,1.1-0.4,1.7s0.3,1.2,0.6,1.5c0.4,0.4,0.9,0.5,1.5,0.5
					c0.4,0,0.9-0.2,1.2-0.5c0.3-0.3,0.5-0.7,0.6-1.1l-0.7,0c-0.1,0.3-0.2,0.5-0.3,0.7c-0.2,0.1-0.4,0.2-0.7,0.3
					c-0.3,0-0.7,0-0.9-0.3c-0.3-0.3-0.5-0.7-0.5-1.1l3.2-0.3c0-0.1,0-0.2,0-0.2c-0.1-0.6-0.3-1.2-0.6-1.5
					C141.7,72.2,141.1,72,140.6,72z M139.6,73.9c0-0.3,0-0.7,0.3-0.9l0,0c0.2-0.2,0.5-0.3,0.8-0.4s0.7,0,0.9,0.3
					c0.2,0.2,0.3,0.5,0.4,0.8L139.6,73.9z"/>
				<path d="M162.7,74.6c0.2,0,0.4,0,0.6-0.2l-1.3,0.1C162.2,74.7,162.4,74.7,162.7,74.6z"/>
				
					<rect x="136.3" y="74.2" transform="matrix(0.9961 -8.770831e-02 8.770831e-02 0.9961 -6.0136 12.3344)" width="2.2" height="0.7"/>
				<polygon points="99.5,75.8 99.9,80.1 100.6,80 100.5,79.2 100.2,75.7 				"/>
				<path d="M155,69.3l-0.8,0.1l-1.2,4.4c-0.1,0.3-0.1,0.6-0.2,1c-0.1-0.3-0.3-0.6-0.4-1l-1.9-4.2l-0.8,0.1l2.6,5.1l0.3,0.6l0.8-0.1
					L154,73l0,0l0,0L155,69.3z"/>
				
					<rect x="147.5" y="73.3" transform="matrix(0.9961 -8.770831e-02 8.770831e-02 0.9961 -5.8833 13.3179)" width="2.2" height="0.7"/>
				<path d="M114.8,75c-0.1-0.2-0.3-0.3-0.5-0.4c-0.2-0.1-0.4-0.2-0.7-0.1c-0.3,0-0.7,0.2-1,0.4c-0.3,0.2-0.5,0.5-0.5,0.8
					c-0.1,0.4-0.1,0.8-0.1,1.2c0,0.4,0.2,0.8,0.3,1.2c0.1,0.3,0.5,0.6,0.8,0.7c0.3,0.2,0.6,0.2,0.9,0.2c0.5,0,0.9-0.3,1.1-0.7l0,0.5
					l0.7-0.1l-0.5-5.9l-0.7,0.1L114.8,75z M114.7,77.8c-0.2,0.2-0.5,0.4-0.8,0.5c-0.3,0-0.6-0.1-0.8-0.3c-0.3-0.4-0.5-0.8-0.4-1.2
					c0-0.4,0-0.9,0.2-1.2l0,0c0.2-0.3,0.5-0.4,0.8-0.5c0.3,0,0.6,0.1,0.8,0.3c0.3,0.4,0.5,0.8,0.4,1.3
					C115.1,77.1,114.9,77.5,114.7,77.8z"/>
				<polygon points="160.5,74.7 161.9,74.6 161.9,74.6 				"/>
				<path d="M126.5,71.3c-0.2-0.1-0.5-0.2-0.7-0.2c-0.3,0-0.6,0-0.9,0l-2.2,0.2l0.5,5.9L124,77l-0.2-2.4l1.5-0.1
					c0.6,0,1.2-0.2,1.6-0.6c0.3-0.3,0.4-0.8,0.4-1.3c0-0.3-0.2-0.6-0.3-0.8C127,71.6,126.7,71.5,126.5,71.3z M126.2,73.5
					c-0.3,0.2-0.7,0.4-1.1,0.4l-1.5,0.1l-0.2-2.1l1.5-0.1c0.2,0,0.5,0,0.7,0c0.2,0.1,0.4,0.2,0.5,0.3c0.1,0.2,0.2,0.4,0.3,0.6
					C126.6,73,126.5,73.3,126.2,73.5z"/>
				<path d="M119.2,76.3c0,0.3,0.1,0.6,0,0.8c-0.1,0.2-0.2,0.4-0.4,0.5c-0.2,0.1-0.4,0.2-0.6,0.3s-0.4-0.1-0.5-0.2s-0.3-0.3-0.3-0.4
					c0-0.3-0.1-0.5-0.1-0.8l-0.2-2.4l-0.8,0.1l0.2,2.6c0,0.2,0,0.5,0.1,0.7c0,0.2,0.1,0.4,0.2,0.5c0.1,0.2,0.3,0.3,0.5,0.4
					c0.2,0.1,0.5,0.1,0.7,0c0.5,0,1.1-0.4,1.3-0.8l0.1,0.6l0.5-0.8l-0.3-3.5L119,74L119.2,76.3z"/>
				<path d="M131,75.3c0,0.3,0.1,0.6,0,0.8c-0.1,0.2-0.2,0.4-0.4,0.5c-0.2,0.1-0.4,0.2-0.6,0.3c-0.2,0-0.4-0.1-0.5-0.2
					s-0.3-0.3-0.3-0.4c0-0.3-0.1-0.5-0.1-0.8l-0.2-2.4l-0.7,0.1l0.2,2.6c0,0.2,0,0.5,0.1,0.7c0,0.2,0.1,0.4,0.2,0.5
					c0.1,0.2,0.3,0.3,0.5,0.4c0.2,0.1,0.5,0.1,0.7,0c0.5,0,1.1-0.4,1.3-0.8l0.1,0.6l0.5-0.8l-0.3-3.5l-0.7,0.1L131,75.3L131,75.3z"
					/>
				
					<rect x="159.5" y="68.9" transform="matrix(0.9961 -8.770831e-02 8.770831e-02 0.9961 -5.6827 14.2964)" width="0.7" height="5.9"/>
			</g>
			<g>
				<path d="M110.2,61.7c-0.3,0.3-0.5,0.7-0.7,1.1l-0.1-1.1l-1.1,0.1L109,69l1.2-0.1l-0.3-3.8c0-0.5,0-1,0.1-1.5
					c0.1-0.3,0.2-0.5,0.4-0.7c0.2-0.2,0.5-0.2,0.7-0.3c0.3,0,0.6,0,0.9,0.2l0.3-1.2c-0.4-0.3-0.8-0.3-1.3-0.3
					C110.7,61.4,110.4,61.5,110.2,61.7z"/>
				<path d="M101.5,62.2c-0.9,0.1-1.8,0.5-2.4,1.2c-0.6,0.9-0.8,1.9-0.7,3c0,1,0.5,2,1.1,2.7c0.8,0.6,1.7,0.9,2.7,0.8
					c0.7-0.1,1.5-0.3,2-0.8c0.6-0.5,0.9-1.2,0.9-1.9l-1.2-0.1c-0.1,0.5-0.3,0.8-0.7,1.2l0,0c-0.3,0.2-0.8,0.5-1.2,0.5
					c-0.6,0.1-1.1-0.1-1.5-0.5c-0.4-0.5-0.8-1.1-0.9-1.8l5.5-0.5c0-0.1,0-0.3,0-0.3c0-1-0.5-2-1.1-2.7
					C103.3,62.4,102.4,62.1,101.5,62.2z M99.8,65.5c-0.1-0.6,0.1-1.1,0.5-1.5l0,0c0.4-0.4,0.8-0.7,1.3-0.7c0.6-0.1,1.2,0.2,1.6,0.6
					c0.3,0.4,0.6,0.9,0.6,1.4C103.8,65.2,99.8,65.5,99.8,65.5z"/>
				
					<rect x="149.1" y="55.3" transform="matrix(0.9961 -8.770831e-02 8.770831e-02 0.9961 -4.3346 13.3429)" width="1.2" height="1.4"/>
				<path d="M73,64.8c-0.8,0.1-1.7,0.4-2.2,1c-0.7,0.9-1,2-0.8,3.1c0,1,0.5,2.1,1.3,2.8l0,0c0.8,0.6,1.7,0.9,2.6,0.8
					c0.6-0.1,1.2-0.2,1.8-0.6c0.5-0.3,0.9-0.8,1.1-1.4c0.2-0.7,0.4-1.5,0.2-2.2c0-1-0.5-2-1.2-2.6C74.9,64.9,74,64.6,73,64.8z
					 M75.2,70.5c-0.4,0.5-0.8,0.8-1.4,0.8c-0.6,0.1-1.2-0.1-1.7-0.6c-0.6-0.6-0.8-1.3-0.8-2c-0.2-0.8,0.1-1.5,0.4-2.1l0,0
					c0.4-0.5,0.9-0.8,1.5-0.8s1.2,0.1,1.6,0.6c0.6,0.6,0.8,1.2,0.8,2C75.6,69,75.5,69.9,75.2,70.5z"/>
				<path d="M85.4,64.5c-0.2-0.3-0.5-0.5-0.8-0.5c-0.4-0.2-0.8-0.1-1.2-0.1c-0.9,0.1-1.8,0.6-2.2,1.4l-0.1-1l-1.1,0.1l0.6,7.3
					l1.2-0.1l-0.4-4c-0.2-0.7,0-1.4,0.4-1.9c0.4-0.3,0.9-0.6,1.4-0.6c0.3,0,0.6,0,0.9,0.1c0.2,0.1,0.4,0.3,0.6,0.6
					c0.1,0.4,0.3,0.7,0.2,1.1l0.4,4.5l1.2-0.1l-0.4-4.5c0-0.4-0.1-0.8-0.2-1.2C85.8,65,85.6,64.8,85.4,64.5z"/>
				<path d="M64.8,71.3L64.8,71.3c-0.5,0.4-1.1,0.8-1.8,0.9c-0.6,0.1-1.2-0.1-1.7-0.3c-0.5-0.3-1.1-0.7-1.3-1.3
					c-0.4-0.7-0.5-1.5-0.6-2.3c-0.1-0.7,0-1.3,0.1-1.9c0.1-0.6,0.5-1.1,1-1.6c0.6-0.5,1.2-0.7,1.9-0.8c0.6-0.1,1.2,0.1,1.7,0.3
					c0.5,0.4,1,0.9,1.1,1.5l1.3-0.4c-0.3-0.9-0.8-1.5-1.6-2.1c-0.7-0.4-1.7-0.7-2.7-0.6c-0.9,0.1-1.7,0.3-2.4,0.8
					c-0.7,0.5-1.2,1.1-1.5,1.9c-0.3,0.9-0.4,1.8-0.4,2.8c0.1,0.9,0.4,1.9,0.7,2.6c0.4,0.8,1,1.4,1.8,1.8c0.8,0.4,1.8,0.5,2.8,0.5
					c1-0.1,1.9-0.5,2.6-1.1c0.7-0.7,1.2-1.6,1.3-2.6l-1.3-0.2C65.7,70.1,65.3,70.7,64.8,71.3z"/>
				<path d="M94.4,66.5c-0.6-0.1-1.2-0.3-1.8-0.4c-0.6-0.1-1-0.2-1.1-0.2c-0.2-0.1-0.4-0.2-0.5-0.3s-0.2-0.3-0.2-0.4
					c0-0.3,0.1-0.5,0.3-0.7c0.4-0.2,0.8-0.4,1.2-0.4c0.4,0,0.8,0,1.1,0.2s0.4,0.5,0.6,0.9l1.2-0.3c-0.1-0.4-0.3-0.8-0.5-1.1
					s-0.6-0.4-1.1-0.6c-0.5-0.2-1-0.2-1.5-0.1c-0.4,0-0.7,0.1-1.1,0.2c-0.3,0.1-0.6,0.3-0.8,0.5c-0.3,0.2-0.5,0.4-0.5,0.7
					c-0.1,0.3-0.1,0.6-0.1,0.9c0,0.3,0.2,0.7,0.4,1c0.2,0.3,0.6,0.6,0.9,0.6c0.6,0.2,1.3,0.4,1.9,0.4c0.4,0.1,0.9,0.1,1.3,0.3
					c0.2,0.1,0.4,0.4,0.5,0.7s-0.1,0.6-0.3,0.8c-0.4,0.3-0.8,0.5-1.3,0.4c-0.5,0-0.9,0-1.3-0.3c-0.3-0.3-0.6-0.7-0.7-1l-1.2,0.3
					c0.2,0.7,0.5,1.3,1.2,1.7l0,0c0.6,0.3,1.5,0.6,2.2,0.4c0.5,0,1.1-0.2,1.5-0.4c0.4-0.2,0.8-0.6,0.9-1c0.2-0.3,0.3-0.8,0.3-1.2
					c0-0.4-0.2-0.7-0.4-1.1C95,66.8,94.7,66.6,94.4,66.5z"/>
				<path d="M130.2,64.1l-0.1-1.7c0-0.4-0.1-0.8-0.2-1.1c-0.1-0.3-0.3-0.6-0.5-0.8c-0.2-0.3-0.5-0.4-0.9-0.5c-0.5-0.2-1-0.1-1.5-0.1
					c-0.6,0.1-1.1,0.2-1.7,0.4c-0.4,0.1-0.8,0.5-1,0.8c-0.3,0.4-0.4,0.8-0.4,1.3l1.2,0.1c0.1-0.4,0.2-0.8,0.5-1.1
					c0.4-0.2,0.8-0.4,1.3-0.4c0.5,0,1,0,1.4,0.3c0.3,0.3,0.5,0.7,0.5,1.1c0,0,0,0.2,0,0.3c-0.7,0.3-1.5,0.5-2.2,0.6
					c-0.4,0-0.7,0.2-1.1,0.3c-0.3,0.1-0.6,0.3-0.9,0.5c-0.3,0.2-0.5,0.4-0.5,0.7c-0.2,0.3-0.1,0.6-0.1,1c0.1,0.6,0.3,1.1,0.8,1.4
					c0.5,0.4,1.2,0.5,1.9,0.4c0.5,0,0.9-0.2,1.4-0.3c0.5-0.2,0.9-0.6,1.2-0.9c0,0.3,0.2,0.6,0.3,0.9l0,0l1.3-0.1
					c-0.2-0.3-0.4-0.6-0.4-0.9C130.3,65.5,130.3,64.8,130.2,64.1z M128.9,64c0,0.4,0.1,0.8-0.1,1.2s-0.4,0.7-0.7,1
					c-0.4,0.2-0.8,0.4-1.3,0.4c-0.4,0-0.8,0-1.1-0.2c-0.2-0.2-0.4-0.5-0.5-0.8c0-0.2,0.1-0.4,0.1-0.6s0.3-0.3,0.5-0.4
					c0.4-0.1,0.7-0.3,1.1-0.3c0.7-0.2,1.4-0.3,1.9-0.7L128.9,64z"/>
				<path d="M118.4,65.4c-0.2,0.5-0.3,1-0.4,1.4c-0.1-0.5-0.4-1-0.6-1.5l-2-4.2l-1.2,0.1l3.4,7l1.2-0.1l2.1-7.5l-1.3,0.1L118.4,65.4
					z"/>
				
					<rect x="149.6" y="58.1" transform="matrix(0.9961 -8.770831e-02 8.770831e-02 0.9961 -4.835 13.4092)" width="1.2" height="7.3"/>
				<path d="M142.5,58.5c-0.8,0.1-1.7,0.4-2.2,1c-0.7,0.9-1,2-0.8,3.1c0,1,0.5,2.1,1.3,2.8l0,0c0.8,0.6,1.7,0.9,2.6,0.8
					c0.6-0.1,1.2-0.3,1.7-0.7c0.5-0.3,0.9-0.8,1.1-1.4c0.2-0.7,0.4-1.5,0.2-2.2c0-1-0.5-2-1.2-2.6C144.3,58.8,143.4,58.5,142.5,58.5
					z M144.5,64.4c-0.4,0.5-0.8,0.8-1.4,0.8c-0.6,0.1-1.2-0.1-1.6-0.6c-0.6-0.6-0.8-1.3-0.8-2c-0.2-0.8,0.1-1.5,0.4-2.1l0,0
					c0.4-0.5,0.9-0.8,1.4-0.8c0.6-0.1,1.2,0.1,1.6,0.6c0.6,0.6,0.8,1.2,0.8,2C145.1,62.9,144.9,63.7,144.5,64.4z"/>
				<path d="M136.4,65.6L136.4,65.6c-0.1,0-0.3,0-0.4-0.1s-0.2-0.1-0.2-0.2c-0.1-0.2-0.1-0.5-0.2-0.7l-0.4-4.3l1.3-0.1l-0.1-1
					l-1.3,0.1l-0.2-2.6l-1.1,0.8l0.2,1.9l-0.9,0.1l0.1,1l0.9-0.1l0.4,4.2c0,0.5,0.1,1,0.3,1.5c0.1,0.2,0.3,0.4,0.6,0.6
					c0.3,0.2,0.7,0.1,1.1,0.1c0.3,0,0.6-0.1,0.9-0.2l-0.3-1.1C136.8,65.6,136.6,65.6,136.4,65.6z"/>
			</g>
			<g>
				<path d="M96.7,48.5c-1.1-0.3-2.4-0.5-3.5-0.7c-1.1,0-2.2-0.3-3.2-0.8c-0.4-0.3-0.7-0.7-0.7-1.2c-0.1-0.6,0.2-1.2,0.8-1.7
					c0.8-0.6,1.7-0.9,2.6-0.9c1-0.2,1.9,0,2.8,0.5c0.6,0.4,1.1,1.2,1.3,2.1l2-0.3c-0.1-0.9-0.4-1.7-1-2.3s-1.3-1.2-2.1-1.4
					c-1-0.3-2-0.4-3.1-0.2c-1,0.1-1.9,0.4-2.8,0.8c-0.8,0.4-1.4,0.9-1.9,1.7c-0.3,0.6-0.6,1.5-0.5,2.2c0.1,0.7,0.3,1.3,0.7,1.8
					c0.5,0.6,1.1,1,1.8,1.2c1,0.3,2.1,0.5,3.1,0.6c0.9,0.1,1.9,0.2,2.9,0.5c0.5,0.2,1,0.4,1.5,0.8c0.3,0.4,0.5,0.8,0.5,1.2
					c0,0.5-0.1,0.9-0.3,1.3c-0.3,0.4-0.7,0.9-1.2,1c-0.7,0.3-1.4,0.5-2.1,0.5c-0.8,0.1-1.6,0-2.4-0.2c-0.6-0.1-1.2-0.5-1.7-1.1
					c-0.5-0.6-0.7-1.1-0.8-1.8l-1.9,0.6c0.1,1,0.5,1.9,1.1,2.6l0,0c0.7,0.7,1.4,1.3,2.3,1.6c1.1,0.3,2.3,0.4,3.5,0.3
					c1-0.1,2.1-0.4,2.9-0.9c0.8-0.4,1.4-1,1.8-1.9c0.4-0.7,0.6-1.6,0.5-2.4s-0.3-1.5-0.8-2C98.3,49.2,97.5,48.7,96.7,48.5z"/>
				<path d="M66,45.3c-0.7-0.4-1.5-0.8-2.4-0.9c-0.9-0.1-1.8,0-2.8,0l-5.4,0.5l1.3,15l5.6-0.5c0.8-0.1,1.7-0.2,2.5-0.5
					c0.7-0.2,1.3-0.5,1.8-1c0.6-0.5,0.9-0.9,1.3-1.5c0.4-0.7,0.7-1.5,0.9-2.3c0.2-1,0.2-2,0.1-3c-0.1-1.2-0.4-2.4-0.9-3.5
					C67.5,46.8,66.9,45.9,66,45.3z M66.7,54.4c-0.1,0.7-0.5,1.4-0.9,2c-0.4,0.4-0.8,0.7-1.3,0.9c-0.8,0.3-1.6,0.4-2.4,0.5l-3.4,0.3
					l-1-11.5l3.3-0.3c0.9-0.1,1.8-0.1,2.7,0.1c0.8,0.2,1.6,0.8,2.1,1.5c0.7,1,1.1,2.3,1.1,3.5C66.9,52.3,66.9,53.3,66.7,54.4z"/>
				<polygon points="74.7,51.5 83.2,50.7 83.1,48.9 74.5,49.7 74.1,45.1 83.3,44.3 83.1,42.5 72,43.5 73.3,58.5 84.8,57.5 
					84.7,55.7 75.1,56.5 				"/>
				<path d="M133.2,47.1c-0.4-0.3-0.8-0.5-1.3-0.7c1.2-0.2,2.3-0.8,3.2-1.7c0.6-0.8,0.9-1.8,0.9-2.8c-0.1-0.8-0.3-1.6-0.8-2.2
					c-0.5-0.7-1.1-1.1-1.8-1.2c-1-0.2-2.1-0.3-3.2-0.1l-6.9,0.6l1.3,15l2.1-0.2l-0.6-6.7l2.4-0.2c0.4,0,0.8-0.1,1.1,0
					c0.3,0.1,0.7,0.1,0.9,0.3c0.4,0.3,0.8,0.5,1.1,0.9c0.4,0.5,1,1.1,1.7,2l2.4,2.9l2.6-0.2l-3-3.8
					C134.5,48.3,133.9,47.6,133.2,47.1z M130.2,45.1l-4.4,0.4l-0.4-5l4.9-0.4c0.9-0.2,1.8,0,2.6,0.5c0.5,0.4,0.9,1,1,1.7
					c0,0.5,0,1-0.3,1.4c-0.3,0.4-0.6,0.8-1.1,1C131.7,44.8,130.9,45,130.2,45.1z"/>
				<path d="M112.1,39.9l-4.7,15.6l2.2-0.2l1.3-4.7l6.5-0.6l2.2,4.4l2.3-0.2l-7.7-14.5L112.1,39.9z M111.5,48.9l1.3-4.5
					c0.3-0.9,0.4-1.9,0.5-3c0.3,0.8,0.8,1.8,1.4,3l2,4C116.7,48.5,111.5,48.9,111.5,48.9z"/>
				<path d="M164.9,44c-0.6-0.7-1.3-1.1-2.1-1.3c-1.1-0.3-2.4-0.5-3.5-0.7c-1.1,0-2.2-0.3-3.2-0.8c-0.4-0.3-0.7-0.7-0.7-1.2
					c-0.1-0.6,0.2-1.2,0.8-1.7c0.8-0.6,1.7-0.9,2.6-0.9c1-0.2,1.9,0,2.8,0.5c0.6,0.4,1.1,1.2,1.3,2.1l2-0.3c-0.1-0.8-0.4-1.7-1-2.3
					c-0.6-0.7-1.3-1.2-2.1-1.4c-1-0.3-2-0.4-3.1-0.2c-1,0.1-1.9,0.4-2.8,0.8c-0.8,0.4-1.4,0.9-1.9,1.7c-0.3,0.6-0.6,1.5-0.5,2.2
					c0.1,0.7,0.3,1.3,0.7,1.8c0.5,0.6,1.1,1,1.8,1.2c1,0.3,2.1,0.5,3.1,0.6c0.9,0.1,1.9,0.2,2.9,0.5c0.5,0.2,1,0.4,1.5,0.8
					c0.3,0.4,0.5,0.8,0.5,1.2c0,0.5-0.1,0.9-0.3,1.3c-0.3,0.4-0.7,0.9-1.2,1c-0.7,0.3-1.4,0.5-2.1,0.5c-0.8,0.1-1.6,0-2.4-0.2
					c-0.6-0.1-1.2-0.5-1.7-1.1c-0.5-0.6-0.7-1.1-0.8-1.8l-1.9,0.4c0.1,1,0.5,1.9,1.1,2.6l0,0c0.7,0.7,1.4,1.3,2.3,1.6
					c1.1,0.3,2.3,0.4,3.5,0.3c1-0.1,2.1-0.4,2.9-0.9c0.8-0.4,1.4-1,1.8-1.9c0.4-0.7,0.6-1.6,0.5-2.4C165.7,45.3,165.4,44.6,164.9,44
					z"/>
				<polygon points="138.2,39.4 143.3,39 144.4,52.2 146.4,52.1 145.2,38.8 150.4,38.4 150.3,36.6 138,37.6 				"/>
			</g>
			<g>
				<path d="M60.8,25.4l-4.7,15.6l2.2-0.2l1.3-4.7l6.5-0.6l2.2,4.4l2.3-0.2l-7.7-14.5L60.8,25.4z M60.2,34.4l1.3-4.5
					c0.3-0.9,0.4-1.9,0.5-3c0.3,0.8,0.8,1.8,1.4,3l2,4L60.2,34.4z"/>
				<path d="M45.4,34c-1.1-0.3-2.4-0.5-3.5-0.7c-1.1,0-2.2-0.3-3.2-0.8c-0.4-0.3-0.7-0.7-0.7-1.2c-0.1-0.6,0.2-1.2,0.8-1.7
					c0.8-0.6,1.7-0.9,2.6-0.9c1-0.2,1.9,0,2.8,0.5c0.6,0.4,1.1,1.2,1.3,2.1l2-0.3c-0.1-0.9-0.4-1.7-1-2.3c-0.6-0.7-1.3-1.2-2.1-1.4
					c-1-0.3-2-0.4-3.1-0.2c-1,0.1-1.9,0.4-2.8,0.8c-0.8,0.4-1.4,0.9-1.9,1.7c-0.3,0.6-0.6,1.5-0.5,2.2c0.1,0.7,0.3,1.3,0.8,1.8
					c0.5,0.6,1.1,1,1.8,1.2c1,0.3,2.1,0.5,3.1,0.6c0.9,0.1,1.9,0.2,2.9,0.5c0.5,0.2,1,0.4,1.5,0.8c0.3,0.4,0.5,0.8,0.5,1.2
					c0,0.5-0.1,0.9-0.3,1.3c-0.3,0.4-0.7,0.9-1.2,1c-0.7,0.3-1.4,0.5-2.1,0.5c-0.8,0.1-1.6,0-2.4-0.2c-0.6-0.1-1.2-0.5-1.7-1.1
					c-0.5-0.6-0.7-1.1-0.8-1.8l-1.9,0.4c0.1,1,0.5,1.9,1.1,2.6l0,0c0.7,0.7,1.4,1.3,2.3,1.6c1.1,0.3,2.3,0.4,3.5,0.3
					c1-0.1,2.1-0.4,2.9-0.9c0.8-0.4,1.4-1,1.8-1.9c0.4-0.7,0.6-1.6,0.5-2.4c-0.1-0.8-0.3-1.5-0.9-2C47,34.6,46.3,34.2,45.4,34z"/>
				<polygon points="23.4,36.9 32,36.1 31.8,34.3 23.2,35.1 22.8,30.5 32,29.7 31.9,27.9 20.7,28.9 22,43.9 33.6,42.9 33.4,41.2 
					23.9,42.1 				"/>
				<polygon points="9.7,29.9 7.7,30 9.1,45.1 18.7,44.2 18.6,42.5 10.9,43.2 				"/>
				<polygon points="121.8,28.2 130.4,27.5 130.2,25.7 121.7,26.4 121.3,21.9 130.4,21 130.3,19.3 119.1,20.2 120.4,35.3 132,34.3 
					131.8,32.6 122.3,33.4 				"/>
				<polygon points="69.3,26.4 74.3,26 75.5,39.2 77.6,39.1 76.4,25.8 81.5,25.4 81.4,23.6 69.1,24.6 				"/>
				<path d="M161.4,25.2c-0.6-0.7-1.3-1.1-2.1-1.3c-1.1-0.3-2.4-0.5-3.5-0.7c-1.1,0-2.2-0.3-3.2-0.8c-0.4-0.3-0.7-0.7-0.7-1.2
					c-0.1-0.6,0.2-1.2,0.8-1.7c0.8-0.6,1.7-0.9,2.6-0.9c1-0.2,1.9,0,2.8,0.5c0.6,0.4,1.1,1.2,1.3,2.1l2-0.3c-0.1-0.8-0.4-1.7-1-2.3
					c-0.6-0.7-1.3-1.2-2.1-1.4c-1-0.3-2-0.4-3.1-0.2c-1,0.1-1.9,0.4-2.8,0.8c-0.8,0.4-1.4,0.9-1.9,1.7c-0.3,0.6-0.6,1.5-0.5,2.2
					c0.1,0.7,0.3,1.3,0.7,1.8c0.5,0.6,1.1,1,1.8,1.2c1,0.3,2.1,0.5,3.1,0.6c0.9,0.1,1.9,0.2,2.9,0.5c0.5,0.2,1,0.4,1.5,0.8
					c0.3,0.4,0.5,0.8,0.5,1.2c0,0.5-0.1,0.9-0.3,1.3c-0.3,0.4-0.7,0.9-1.2,1c-0.7,0.3-1.4,0.5-2.1,0.5c-0.8,0.1-1.6,0-2.4-0.2
					c-0.6-0.1-1.2-0.5-1.7-1.1c-0.5-0.6-0.7-1.1-0.8-1.8l-1.9,0.4c0.1,1,0.5,1.9,1.1,2.6l0,0c0.7,0.7,1.4,1.3,2.3,1.6
					c1.1,0.3,2.3,0.4,3.5,0.3c1-0.1,2.1-0.4,2.9-0.9c0.8-0.4,1.4-1,1.8-1.9c0.4-0.7,0.6-1.6,0.5-2.4
					C162.1,26.6,161.9,25.9,161.4,25.2z"/>
				<polygon points="112.6,20.8 114,35.9 116,35.7 116,35.7 114.6,20.6 				"/>
				<polygon points="101.4,21.8 99.4,22 100.7,37 110.4,36.2 110.2,34.5 102.6,35.1 				"/>
				<polygon points="87.1,31.3 95.6,30.5 95.5,28.7 86.9,29.5 86.5,24.9 95.7,24.1 95.5,22.3 84.2,23.3 85.6,38.4 97.1,37.3 
					97,35.6 87.5,36.5 				"/>
			</g>
			<g id="Groupe_529" transform="translate(30.291 49.357)">
				<path id="Tracé_4383" d="M7.3,34.8l8-25.4c1.6,0.5,3.3,0.6,5,0.6l2.3,26.5C17.5,36.9,12.3,36.4,7.3,34.8"/>
			</g>
			<g id="Groupe_530" transform="translate(4.678 36.193)">
				<path id="Tracé_4384" d="M8.4,27.4c-2.3-4.6-3.8-9.6-4.3-14.8l26.3-2.3c0.3,0.8,0.4,1.7,0.6,2.5c0.2,0.8,0.5,1.6,0.9,2.4
					L8.4,27.4"/>
			</g>
			<g id="Groupe_531" transform="translate(16.99 46.413)">
				<path id="Tracé_4385" d="M23.8,9.8c1.2,0.9,2.6,1.7,4,2.3l-8.1,25.4c-4.8-1.6-9.2-4-13.1-7.2L23.8,9.8"/>
			</g>
			<g id="Groupe_532" transform="translate(8.004 42.007)">
				<path id="Tracé_4386" d="M14.8,34.1c-3.8-3.3-7-7.2-9.4-11.6l23.6-12.3c0.7,1.2,1.7,2.5,2.8,3.5L14.8,34.1"/>
			</g>
			<g id="Groupe_533" transform="translate(32.156 36.192)">
				<path id="Tracé_4387" d="M18.4,22.2c-7.2,0.4-13.5-4.8-14.3-12L17.2,9L18.4,22.2z"/>
			</g>
		</g>
	</g>
	<path d="M143.9,27.4c-0.4-0.3-0.8-0.5-1.3-0.7c1.2-0.2,2.3-0.8,3.2-1.7c0.6-0.8,0.9-1.8,0.9-2.8c-0.1-0.8-0.3-1.6-0.8-2.2
		c-0.5-0.7-1.1-1.1-1.8-1.2c-1-0.2-2.1-0.3-3.2-0.1l-6.9,0.6l1.3,15l2.1-0.2l-0.6-6.7l2.4-0.2c0.4,0,0.8-0.1,1.1,0
		c0.3,0.1,0.7,0.1,0.9,0.3c0.4,0.3,0.8,0.5,1.1,0.9c0.4,0.5,1,1.1,1.7,2l2.4,2.9l2.6-0.2l-3-3.8C145.2,28.5,144.6,27.9,143.9,27.4z
		 M140.9,25.3l-4.4,0.4l-0.4-5l4.9-0.4c0.9-0.2,1.8,0,2.6,0.5c0.5,0.4,0.9,1,1,1.7c0,0.5,0,1-0.3,1.4c-0.3,0.4-0.6,0.8-1.1,1
		C142.4,25.1,141.6,25.3,140.9,25.3z"/>
	<path d="M155.9,57.7c-0.3,0.3-0.5,0.7-0.7,1.1l-0.1-1.1l-1.1,0.1l0.6,7.3l1.2-0.1l-0.3-3.8c0-0.5,0-1,0.1-1.5
		c0.1-0.3,0.2-0.5,0.4-0.7c0.2-0.2,0.5-0.2,0.7-0.3c0.3,0,0.6,0,0.9,0.2l0.3-1.2c-0.4-0.3-0.8-0.3-1.3-0.3
		C156.4,57.4,156.1,57.4,155.9,57.7z"/>
	<g>
		<path class="st1" d="M163.7,57.7c-0.5,0-1.1,0.3-1.3,0.7l0,0c-0.4,0.4-0.5,1-0.5,1.5l4.1-0.4c0-0.5-0.3-1-0.6-1.4
			C164.9,57.8,164.3,57.6,163.7,57.7z"/>
		<path d="M166.8,60.2c0-1-0.5-2-1.1-2.7c-0.7-0.6-1.6-0.9-2.5-0.8c-0.9,0.1-1.8,0.5-2.4,1.2c-0.6,0.9-0.8,1.9-0.7,3
			c0,1,0.5,2,1.1,2.7c0.8,0.6,1.7,0.9,2.7,0.8c0.7-0.1,1.5-0.3,2-0.8c0.6-0.5,0.9-1.2,0.9-1.9l-1.3-0.1c-0.1,0.5-0.3,0.8-0.7,1.2
			l0,0c-0.3,0.2-0.8,0.5-1.2,0.5c-0.6,0.1-1.1-0.1-1.5-0.5c-0.4-0.5-0.8-1.1-0.9-1.8l5.5-0.5C166.8,60.4,166.8,60.3,166.8,60.2z
			 M161.4,60c-0.1-0.6,0.1-1.1,0.5-1.5l0,0c0.4-0.4,0.8-0.7,1.3-0.7c0.6-0.1,1.2,0.2,1.6,0.6c0.3,0.4,0.6,0.9,0.6,1.4
			C165.3,59.6,161.4,60,161.4,60z"/>
	</g>
	<path d="M101.7,79.4c0.4,0.4,0.9,0.5,1.5,0.5c0.4,0,0.7-0.2,1-0.4c0.3-0.2,0.6-0.5,0.6-0.8c0.2-0.4,0.2-0.9,0.1-1.3
		c-0.1-0.6-0.3-1.2-0.7-1.5c-0.4-0.4-0.9-0.5-1.4-0.5c-0.5,0-1,0.3-1.3,0.6c-0.5,0.5-0.6,1.2-0.5,1.9C101,78.4,101.3,79,101.7,79.4
		 M104.1,78.8c-0.2,0.3-0.6,0.5-0.9,0.5c-0.3,0-0.7,0-0.9-0.3c-0.3-0.4-0.5-0.8-0.5-1.2c0-0.4,0-0.9,0.3-1.2l0,0
		c0.2-0.3,0.6-0.5,0.9-0.5c0.3,0,0.7,0,0.9,0.3c0.3,0.3,0.5,0.8,0.5,1.2C104.4,77.9,104.3,78.4,104.1,78.8z"/>
	<path d="M108.7,75.4c-0.1-0.2-0.3-0.3-0.5-0.4c-0.2-0.1-0.5-0.1-0.7,0c-0.5,0-1.1,0.3-1.3,0.8l-0.1-0.6l-0.7,0.1l0.4,4.3l0.7-0.1
		l-0.2-2.3c0-0.4,0-0.8,0.2-1.1c0.2-0.2,0.5-0.3,0.8-0.4c0.2,0,0.4,0,0.5,0.1s0.2,0.2,0.3,0.3c0.1,0.2,0.1,0.4,0.2,0.7l0.2,2.6
		l0.7-0.1l-0.2-2.6c0-0.2,0-0.5-0.1-0.7C108.9,75.7,108.8,75.6,108.7,75.4z"/>
	<path d="M135.4,72.6l-0.7,2.6c-0.1,0.3-0.1,0.6-0.2,1c-0.1-0.3-0.3-0.7-0.4-1l-1.1-2.4l-0.8,0.1l2,4.1c0,0.1-0.1,0.1-0.1,0.2
		c-0.1,0.2-0.1,0.4-0.2,0.5c-0.1,0.1-0.1,0.2-0.2,0.2c-0.1,0.1-0.3,0.1-0.4,0.1c-0.1,0-0.3,0-0.4-0.1l0.2,0.7
		c0.1,0.1,0.3,0.1,0.5,0.1l0,0c0.2,0,0.4-0.1,0.6-0.3c0.2-0.1,0.3-0.3,0.4-0.5c0.2-0.3,0.2-0.6,0.3-1l1.2-4.4
		C136.1,72.6,135.4,72.6,135.4,72.6z"/>
	<path d="M156.7,70.6c-0.5,0-1.1,0.3-1.3,0.7c-0.4,0.5-0.5,1.1-0.4,1.7s0.3,1.2,0.6,1.5c0.4,0.4,0.9,0.5,1.5,0.5
		c0.4,0,0.9-0.2,1.2-0.5c0.3-0.3,0.5-0.7,0.6-1.1l-0.7,0c-0.1,0.3-0.2,0.5-0.3,0.7c-0.2,0.1-0.4,0.2-0.7,0.3s-0.7,0-0.9-0.3
		c-0.3-0.3-0.5-0.7-0.5-1.1l3.2-0.3c0-0.1,0-0.2,0-0.2c-0.1-0.6-0.3-1.2-0.6-1.5C157.7,70.7,157.2,70.6,156.7,70.6z M155.6,72.5
		c0-0.3,0-0.7,0.3-0.9l0,0c0.2-0.2,0.5-0.3,0.8-0.4c0.3,0,0.7,0,0.9,0.3c0.2,0.2,0.3,0.5,0.4,0.8L155.6,72.5z"/>
</g>
</svg>
